<svg width="24" height="24" viewBox="0 0 24 24" fill="none" xmlns="http://www.w3.org/2000/svg">
<g clip-path="url(#clip0_10_39)">
<path d="M22.9315 8.12331C22.4189 6.92916 21.379 5.63983 20.5647 5.23225C21.1454 6.32086 21.5484 7.48996 21.7595 8.69799L21.7616 8.71714C20.4277 5.49896 18.1665 4.1993 16.3187 1.37308C16.2253 1.23014 16.1318 1.08692 16.0408 0.935732C15.9888 0.849383 15.9471 0.771581 15.9108 0.699967C15.8342 0.556314 15.7752 0.404496 15.7349 0.247594C15.7349 0.240353 15.7322 0.233347 15.7273 0.227912C15.7224 0.222476 15.7155 0.218992 15.7081 0.218123C15.7008 0.216192 15.6931 0.216192 15.6859 0.218123C15.6844 0.218123 15.6819 0.220775 15.6801 0.221365C15.6783 0.221954 15.6743 0.224607 15.6716 0.225785L15.6761 0.218123C12.7127 1.89795 11.7066 5.00709 11.6153 6.56314C10.4314 6.64172 9.29947 7.06392 8.36719 7.77467C8.26996 7.69495 8.16834 7.62037 8.06277 7.55129C7.79397 6.64033 7.78252 5.67624 8.02959 4.75954C6.94128 5.26991 5.97425 5.99345 5.18973 6.88437H5.18425C4.71667 6.31058 4.74955 4.41857 4.77634 4.02336C4.63801 4.07718 4.50597 4.14505 4.38243 4.22583C3.96965 4.51103 3.58377 4.83105 3.22931 5.18215C2.82538 5.57862 2.45646 6.00714 2.12642 6.46323V6.465V6.46294C1.36799 7.50373 0.829991 8.67963 0.543479 9.92278L0.527649 9.99823C0.505427 10.0987 0.425367 10.6021 0.411668 10.7114C0.411668 10.72 0.409842 10.7279 0.408929 10.7365C0.305656 11.2561 0.241661 11.7824 0.217453 12.3111V12.37C0.222667 15.2282 1.33452 17.9807 3.33353 20.0841C5.33254 22.1875 8.07343 23.4889 11.0151 23.7314C13.9569 23.974 16.8856 23.1401 19.2233 21.3943C21.5609 19.6485 23.1376 17.1177 23.642 14.3015C23.6618 14.1542 23.6779 14.0083 23.6956 13.8595C23.9386 11.915 23.6755 9.94251 22.9303 8.12154L22.9315 8.12331ZM9.33339 17.0647C9.38849 17.0903 9.44024 17.118 9.49686 17.1425L9.50508 17.1475C9.44785 17.121 9.39062 17.0934 9.33339 17.0647ZM21.762 8.72039V8.70948L21.7641 8.72156L21.762 8.72039Z" fill="url(#paint0_linear_10_39)"/>
<path d="M22.9315 8.123C22.4188 6.92885 21.379 5.63951 20.5647 5.23193C21.1453 6.32055 21.5484 7.48965 21.7595 8.69767V8.70858L21.7616 8.72066C22.6712 11.2401 22.5396 14.0024 21.3945 16.4302C20.0423 19.239 16.7705 22.118 11.6472 21.9765C6.11299 21.8248 1.2363 17.8477 0.326104 12.6402C0.160199 11.8189 0.326104 11.4025 0.409513 10.735C0.295739 11.2535 0.232247 11.7811 0.219864 12.3111V12.37C0.225078 15.2282 1.33693 17.9807 3.33594 20.0841C5.33495 22.1874 8.07584 23.4889 11.0176 23.7314C13.9593 23.974 16.888 23.1401 19.2257 21.3943C21.5633 19.6485 23.14 17.1177 23.6444 14.3015C23.6642 14.1542 23.6803 14.0083 23.698 13.8594C23.941 11.9149 23.6779 9.94249 22.9327 8.12152L22.9315 8.123Z" fill="url(#paint1_radial_10_39)"/>
<path d="M22.9315 8.123C22.4188 6.92885 21.379 5.63951 20.5647 5.23193C21.1453 6.32055 21.5484 7.48965 21.7595 8.69767V8.70858L21.7616 8.72066C22.6712 11.2401 22.5396 14.0024 21.3945 16.4302C20.0423 19.239 16.7705 22.118 11.6472 21.9765C6.11299 21.8248 1.2363 17.8477 0.326104 12.6402C0.160199 11.8189 0.326104 11.4025 0.409513 10.735C0.295739 11.2535 0.232247 11.7811 0.219864 12.3111V12.37C0.225078 15.2282 1.33693 17.9807 3.33594 20.0841C5.33495 22.1874 8.07584 23.4889 11.0176 23.7314C13.9593 23.974 16.888 23.1401 19.2257 21.3943C21.5633 19.6485 23.14 17.1177 23.6444 14.3015C23.6642 14.1542 23.6803 14.0083 23.698 13.8594C23.941 11.9149 23.6779 9.94249 22.9327 8.12152L22.9315 8.123Z" fill="url(#paint2_radial_10_39)"/>
<path d="M17.1963 9.46393C17.2219 9.48132 17.2457 9.49871 17.2697 9.5161C16.9733 9.00734 16.6044 8.54155 16.1738 8.13245C12.5057 4.58125 15.2128 0.434736 15.6691 0.222548L15.6737 0.216064C12.7102 1.89589 11.7041 5.00503 11.6128 6.56108C11.7504 6.55194 11.8868 6.54075 12.0274 6.54075C13.0788 6.54272 14.1109 6.81417 15.0188 7.32751C15.9267 7.84084 16.678 8.57776 17.1963 9.46334V9.46393Z" fill="url(#paint3_radial_10_39)"/>
<path d="M12.0335 10.1742C12.014 10.4583 10.9772 11.4382 10.6146 11.4382C7.26002 11.4382 6.71512 13.403 6.71512 13.403C6.86367 15.0575 8.05453 16.4208 9.4941 17.1398C9.55985 17.1729 9.62652 17.2026 9.69319 17.2318C9.80866 17.2813 9.92413 17.3271 10.0396 17.3691C10.5337 17.5384 11.0511 17.635 11.5748 17.6559C17.456 17.9229 18.5945 10.8482 14.3507 8.79407C15.3518 8.66797 16.3656 8.90627 17.1954 9.46276C16.6771 8.57718 15.9258 7.84026 15.0179 7.32692C14.11 6.81358 13.0779 6.54213 12.0265 6.54016C11.8865 6.54016 11.7495 6.55136 11.6119 6.5605C10.428 6.63907 9.2961 7.06128 8.36382 7.77203C8.54372 7.91938 8.74677 8.11625 9.17447 8.52442C9.97507 9.288 12.0283 10.079 12.0329 10.1718L12.0335 10.1742Z" fill="url(#paint4_radial_10_39)"/>
<path d="M12.0335 10.1742C12.014 10.4583 10.9772 11.4382 10.6146 11.4382C7.26002 11.4382 6.71512 13.403 6.71512 13.403C6.86367 15.0575 8.05453 16.4208 9.4941 17.1398C9.55985 17.1729 9.62652 17.2026 9.69319 17.2318C9.80866 17.2813 9.92413 17.3271 10.0396 17.3691C10.5337 17.5384 11.0511 17.635 11.5748 17.6559C17.456 17.9229 18.5945 10.8482 14.3507 8.79407C15.3518 8.66797 16.3656 8.90627 17.1954 9.46276C16.6771 8.57718 15.9258 7.84026 15.0179 7.32692C14.11 6.81358 13.0779 6.54213 12.0265 6.54016C11.8865 6.54016 11.7495 6.55136 11.6119 6.5605C10.428 6.63907 9.2961 7.06128 8.36382 7.77203C8.54372 7.91938 8.74677 8.11625 9.17447 8.52442C9.97507 9.288 12.0283 10.079 12.0329 10.1718L12.0335 10.1742Z" fill="url(#paint5_radial_10_39)"/>
<path d="M7.81435 7.39515C7.90993 7.45409 7.98877 7.50537 8.05788 7.55164C7.78908 6.64068 7.77762 5.67659 8.02469 4.75989C6.93638 5.27026 5.96935 5.9938 5.18483 6.88472C5.24236 6.88324 6.95377 6.85348 7.81435 7.39515Z" fill="url(#paint6_radial_10_39)"/>
<path d="M0.323968 12.6408C1.23447 17.8483 6.11085 21.8268 11.6451 21.9771C16.7683 22.1174 20.0408 19.2381 21.3924 16.4307C22.5375 14.003 22.669 11.2407 21.7595 8.72125V8.71034C21.7595 8.70179 21.7577 8.69678 21.7595 8.69944L21.7616 8.71859C22.1802 11.3642 20.7902 13.926 18.617 15.6619L18.6103 15.6766C14.376 19.0156 10.3242 17.6906 9.50536 17.1501C9.44813 17.1236 9.3909 17.096 9.33367 17.0673C6.86519 15.925 5.8451 13.7489 6.06428 11.8805C5.47831 11.8889 4.90242 11.7325 4.40637 11.4305C3.91032 11.1284 3.5154 10.6935 3.26946 10.1786C3.9175 9.79425 4.65639 9.57699 5.41573 9.54748C6.17508 9.51798 6.92958 9.6772 7.60734 10.01C9.00438 10.6239 10.594 10.6844 12.0365 10.1786C12.032 10.0857 9.97872 9.29445 9.17811 8.53116C8.75041 8.12299 8.54737 7.92642 8.36746 7.77878C8.27023 7.69905 8.16861 7.62448 8.06305 7.55539C7.99303 7.50912 7.91419 7.45902 7.81952 7.3989C6.95895 6.85723 5.24754 6.887 5.19092 6.88847H5.18544C4.71786 6.31468 4.75074 4.42267 4.77752 4.02747C4.6392 4.08129 4.50716 4.14915 4.38362 4.22993C3.97084 4.51513 3.58496 4.83515 3.2305 5.18625C2.82512 5.5816 2.45468 6.00915 2.12305 6.46439C1.36461 7.50518 0.826614 8.68079 0.540101 9.92394C0.534318 9.94722 0.115141 11.7214 0.321838 12.6414L0.323968 12.6408Z" fill="url(#paint7_radial_10_39)"/>
<path d="M16.1735 8.13189C16.6042 8.54144 16.9732 9.00774 17.2694 9.51701C17.3342 9.56446 17.3948 9.61161 17.4463 9.65729C20.1211 12.0444 18.7196 15.4188 18.6152 15.6575C20.7881 13.9243 22.1768 11.3607 21.7598 8.71423C20.4253 5.4931 18.1616 4.19344 16.3169 1.36722C16.2234 1.22428 16.13 1.08106 16.039 0.929872C15.9869 0.843524 15.9452 0.765721 15.909 0.694108C15.8324 0.550454 15.7733 0.398637 15.733 0.241734C15.7331 0.234494 15.7304 0.227488 15.7255 0.222052C15.7205 0.216617 15.7137 0.213132 15.7063 0.212264C15.699 0.210333 15.6913 0.210333 15.684 0.212264C15.6825 0.212264 15.6801 0.214916 15.6782 0.215506C15.6764 0.216095 15.6725 0.218747 15.6697 0.219926C15.2134 0.429462 12.5069 4.57862 16.175 8.12688L16.1735 8.13189Z" fill="url(#paint8_radial_10_39)"/>
<path d="M17.446 9.65851C17.3945 9.61283 17.3339 9.56567 17.2691 9.51823C17.2451 9.50084 17.2213 9.48345 17.1957 9.46606C16.3659 8.90957 15.3521 8.67127 14.351 8.79738C18.5945 10.8515 17.456 17.9244 11.5751 17.6592C11.0514 17.6383 10.534 17.5417 10.0399 17.3724C9.92443 17.3306 9.80896 17.2848 9.69349 17.2351C9.62682 17.2056 9.56015 17.1762 9.4944 17.1432L9.50262 17.1482C10.3227 17.6901 14.3732 19.0142 18.6076 15.6746L18.6143 15.6599C18.7199 15.4212 20.1214 12.0468 17.4454 9.65969L17.446 9.65851Z" fill="url(#paint9_radial_10_39)"/>
<path d="M6.71543 13.4012C6.71543 13.4012 7.26002 11.4364 10.615 11.4364C10.9775 11.4364 12.0153 10.4565 12.0338 10.1724C10.5913 10.6782 9.00165 10.6177 7.60462 10.0038C6.92685 9.67103 6.17235 9.5118 5.41301 9.54131C4.65366 9.57082 3.91477 9.78808 3.26674 10.1724C3.51267 10.6874 3.90759 11.1222 4.40364 11.4243C4.89969 11.7264 5.47559 11.8827 6.06155 11.8743C5.84298 13.7419 6.86276 15.9177 9.33094 17.0611C9.38604 17.0868 9.43779 17.1145 9.49441 17.1389C8.05363 16.4184 6.86398 15.0557 6.71543 13.4021V13.4012Z" fill="url(#paint10_radial_10_39)"/>
<path d="M22.9315 8.12331C22.4189 6.92916 21.379 5.63983 20.5647 5.23225C21.1454 6.32086 21.5484 7.48996 21.7595 8.69799L21.7617 8.71714C20.4277 5.49896 18.1665 4.1993 16.3188 1.37308C16.2253 1.23014 16.1319 1.08692 16.0408 0.935732C15.9888 0.849383 15.9471 0.771581 15.9109 0.699967C15.8342 0.556314 15.7752 0.404496 15.7349 0.247594C15.735 0.240353 15.7323 0.233347 15.7273 0.227912C15.7224 0.222476 15.7155 0.218992 15.7081 0.218123C15.7008 0.216192 15.6932 0.216192 15.6859 0.218123C15.6844 0.218123 15.6819 0.220775 15.6801 0.221365C15.6783 0.221954 15.6743 0.224607 15.6716 0.225785L15.6762 0.218123C12.7127 1.89795 11.7066 5.00709 11.6153 6.56314C11.7529 6.554 11.8893 6.5428 12.0299 6.5428C13.0813 6.54477 14.1134 6.81623 15.0213 7.32957C15.9292 7.8429 16.6805 8.57982 17.1988 9.4654C16.3689 8.90891 15.3552 8.67061 14.3541 8.79671C18.5976 10.8508 17.4591 17.9238 11.5781 17.6585C11.0545 17.6377 10.5371 17.541 10.043 17.3718C9.92752 17.3299 9.81205 17.2841 9.69657 17.2344C9.62991 17.205 9.56324 17.1755 9.49749 17.1425L9.50571 17.1475C9.44848 17.121 9.39125 17.0934 9.33402 17.0647C9.38912 17.0903 9.44087 17.118 9.49749 17.1425C8.0567 16.4216 6.86706 15.0589 6.71851 13.4056C6.71851 13.4056 7.2631 11.4408 10.618 11.4408C10.9806 11.4408 12.0183 10.4609 12.0369 10.1768C12.0323 10.084 9.97907 9.2927 9.17846 8.52942C8.75076 8.12125 8.54772 7.92468 8.36781 7.77703C8.27058 7.6973 8.16896 7.62273 8.0634 7.55365C7.7946 6.64269 7.78314 5.6786 8.03022 4.7619C6.9419 5.27227 5.97488 5.99581 5.19035 6.88673H5.18487C4.7173 6.31293 4.75017 4.42092 4.77696 4.02572C4.63864 4.07954 4.50659 4.14741 4.38305 4.22819C3.97028 4.51338 3.5844 4.83341 3.22994 5.18451C2.82601 5.58098 2.45709 6.0095 2.12705 6.46559C1.36862 7.50638 0.830617 8.68199 0.544105 9.92514L0.528275 10.0006C0.506053 10.1011 0.40651 10.6115 0.392203 10.7211C0.301153 11.248 0.243006 11.7798 0.218079 12.3134V12.3724C0.223293 15.2306 1.33515 17.9831 3.33415 20.0864C5.33316 22.1898 8.07406 23.4912 11.0158 23.7338C13.9575 23.9764 16.8862 23.1424 19.2239 21.3966C21.5615 19.6509 23.1382 17.1201 23.6426 14.3039C23.6624 14.1565 23.6786 14.0106 23.6962 13.8618C23.9392 11.9173 23.6761 9.94486 22.9309 8.1239L22.9315 8.12331Z" fill="url(#paint11_linear_10_39)"/>
</g>
<defs>
<linearGradient id="paint0_linear_10_39" x1="21.3699" y1="3.86656" x2="2.39557" y2="22.7765" gradientUnits="userSpaceOnUse">
<stop offset="0.048" stop-color="#FFF44F"/>
<stop offset="0.111" stop-color="#FFE847"/>
<stop offset="0.225" stop-color="#FFC830"/>
<stop offset="0.368" stop-color="#FF980E"/>
<stop offset="0.401" stop-color="#FF8B16"/>
<stop offset="0.462" stop-color="#FF672A"/>
<stop offset="0.534" stop-color="#FF3647"/>
<stop offset="0.705" stop-color="#E31587"/>
</linearGradient>
<radialGradient id="paint1_radial_10_39" cx="0" cy="0" r="1" gradientUnits="userSpaceOnUse" gradientTransform="translate(20.6119 2.86839) scale(24.5965 23.8122)">
<stop offset="0.129" stop-color="#FFBD4F"/>
<stop offset="0.186" stop-color="#FFAC31"/>
<stop offset="0.247" stop-color="#FF9D17"/>
<stop offset="0.283" stop-color="#FF980E"/>
<stop offset="0.403" stop-color="#FF563B"/>
<stop offset="0.467" stop-color="#FF3750"/>
<stop offset="0.71" stop-color="#F5156C"/>
<stop offset="0.782" stop-color="#EB0878"/>
<stop offset="0.86" stop-color="#E50080"/>
</radialGradient>
<radialGradient id="paint2_radial_10_39" cx="0" cy="0" r="1" gradientUnits="userSpaceOnUse" gradientTransform="translate(11.4795 12.5937) scale(24.5965 23.8122)">
<stop offset="0.3" stop-color="#960E18"/>
<stop offset="0.351" stop-color="#B11927" stop-opacity="0.74"/>
<stop offset="0.435" stop-color="#DB293D" stop-opacity="0.343"/>
<stop offset="0.497" stop-color="#F5334B" stop-opacity="0.094"/>
<stop offset="0.53" stop-color="#FF3750" stop-opacity="0"/>
</radialGradient>
<radialGradient id="paint3_radial_10_39" cx="0" cy="0" r="1" gradientUnits="userSpaceOnUse" gradientTransform="translate(14.5236 -2.43629) scale(17.8173 17.2491)">
<stop offset="0.132" stop-color="#FFF44F"/>
<stop offset="0.252" stop-color="#FFDC3E"/>
<stop offset="0.506" stop-color="#FF9D12"/>
<stop offset="0.526" stop-color="#FF980E"/>
</radialGradient>
<radialGradient id="paint4_radial_10_39" cx="0" cy="0" r="1" gradientUnits="userSpaceOnUse" gradientTransform="translate(8.73977 18.7825) scale(11.7108 11.3373)">
<stop offset="0.353" stop-color="#3A8EE6"/>
<stop offset="0.472" stop-color="#5C79F0"/>
<stop offset="0.669" stop-color="#9059FF"/>
<stop offset="1" stop-color="#C139E6"/>
</radialGradient>
<radialGradient id="paint5_radial_10_39" cx="0" cy="0" r="1" gradientUnits="userSpaceOnUse" gradientTransform="translate(12.6691 10.5496) rotate(-13.1735) scale(6.19928 7.05081)">
<stop offset="0.206" stop-color="#9059FF" stop-opacity="0"/>
<stop offset="0.278" stop-color="#8C4FF3" stop-opacity="0.064"/>
<stop offset="0.747" stop-color="#7716A8" stop-opacity="0.45"/>
<stop offset="0.975" stop-color="#6E008B" stop-opacity="0.6"/>
</radialGradient>
<radialGradient id="paint6_radial_10_39" cx="0" cy="0" r="1" gradientUnits="userSpaceOnUse" gradientTransform="translate(11.1751 1.98435) scale(8.42614 8.15746)">
<stop stop-color="#FFE226"/>
<stop offset="0.121" stop-color="#FFDB27"/>
<stop offset="0.295" stop-color="#FFC82A"/>
<stop offset="0.502" stop-color="#FFA930"/>
<stop offset="0.732" stop-color="#FF7E37"/>
<stop offset="0.792" stop-color="#FF7139"/>
</radialGradient>
<radialGradient id="paint7_radial_10_39" cx="0" cy="0" r="1" gradientUnits="userSpaceOnUse" gradientTransform="translate(17.8721 -3.32044) scale(35.9511 34.8048)">
<stop offset="0.113" stop-color="#FFF44F"/>
<stop offset="0.456" stop-color="#FF980E"/>
<stop offset="0.622" stop-color="#FF5634"/>
<stop offset="0.716" stop-color="#FF3647"/>
<stop offset="0.904" stop-color="#E31587"/>
</radialGradient>
<radialGradient id="paint8_radial_10_39" cx="0" cy="0" r="1" gradientUnits="userSpaceOnUse" gradientTransform="translate(14.884 -1.39064) rotate(83.7791) scale(25.5148 17.284)">
<stop stop-color="#FFF44F"/>
<stop offset="0.06" stop-color="#FFE847"/>
<stop offset="0.168" stop-color="#FFC830"/>
<stop offset="0.304" stop-color="#FF980E"/>
<stop offset="0.356" stop-color="#FF8B16"/>
<stop offset="0.455" stop-color="#FF672A"/>
<stop offset="0.57" stop-color="#FF3647"/>
<stop offset="0.737" stop-color="#E31587"/>
</radialGradient>
<radialGradient id="paint9_radial_10_39" cx="0" cy="0" r="1" gradientUnits="userSpaceOnUse" gradientTransform="translate(11.1751 4.93143) scale(22.4413 21.7257)">
<stop offset="0.137" stop-color="#FFF44F"/>
<stop offset="0.48" stop-color="#FF980E"/>
<stop offset="0.592" stop-color="#FF5634"/>
<stop offset="0.655" stop-color="#FF3647"/>
<stop offset="0.904" stop-color="#E31587"/>
</radialGradient>
<radialGradient id="paint10_radial_10_39" cx="0" cy="0" r="1" gradientUnits="userSpaceOnUse" gradientTransform="translate(16.9589 6.11017) scale(24.5631 23.7798)">
<stop offset="0.094" stop-color="#FFF44F"/>
<stop offset="0.231" stop-color="#FFE141"/>
<stop offset="0.509" stop-color="#FFAF1E"/>
<stop offset="0.626" stop-color="#FF980E"/>
</radialGradient>
<linearGradient id="paint11_linear_10_39" x1="21.1324" y1="3.7693" x2="5.00881" y2="20.427" gradientUnits="userSpaceOnUse">
<stop offset="0.167" stop-color="#FFF44F" stop-opacity="0.8"/>
<stop offset="0.266" stop-color="#FFF44F" stop-opacity="0.634"/>
<stop offset="0.489" stop-color="#FFF44F" stop-opacity="0.217"/>
<stop offset="0.6" stop-color="#FFF44F" stop-opacity="0"/>
</linearGradient>
<clipPath id="clip0_10_39">
<rect width="24" height="24" fill="white"/>
</clipPath>
</defs>
</svg>
