<svg width="20" height="22" viewBox="0 0 20 22" fill="none" xmlns="http://www.w3.org/2000/svg">
<path fill-rule="evenodd" clip-rule="evenodd" d="M5.05033 2.05025C6.36309 0.737498 8.14356 0 10.0001 0C11.8566 0 13.6371 0.737498 14.9498 2.05025C16.2626 3.36301 17.0001 5.14349 17.0001 7C17.0001 10.3527 17.7171 12.4346 18.378 13.6461C18.7098 14.2544 19.0329 14.6535 19.2573 14.8904C19.3698 15.0091 19.4581 15.0878 19.5114 15.1322C19.538 15.1544 19.5558 15.168 19.5635 15.1737C19.5647 15.1746 19.5657 15.1753 19.5664 15.1758C19.9249 15.4221 20.0835 15.8725 19.9572 16.2898C19.8295 16.7115 19.4407 17 19.0001 17H1.00008C0.559411 17 0.170684 16.7115 0.0429858 16.2898C-0.0833568 15.8725 0.0752824 15.4221 0.433767 15.1758C0.434469 15.1753 0.435424 15.1746 0.436625 15.1737C0.444325 15.168 0.462178 15.1544 0.4888 15.1322C0.542016 15.0878 0.6304 15.0091 0.742875 14.8904C0.967304 14.6535 1.29039 14.2544 1.62218 13.6461C2.28301 12.4346 3.00008 10.3527 3.00008 7C3.00008 5.14348 3.73758 3.36301 5.05033 2.05025ZM0.443875 15.169C0.443954 15.1689 0.444033 15.1688 0.444112 15.1688C0.444107 15.1688 0.444103 15.1688 0.444099 15.1688L0.443875 15.169ZM3.1494 15H16.8508C16.7747 14.8753 16.6983 14.7434 16.6222 14.6039C15.783 13.0654 15.0001 10.6473 15.0001 7C15.0001 5.67392 14.4733 4.40215 13.5356 3.46447C12.5979 2.52678 11.3262 2 10.0001 2C8.674 2 7.40223 2.52678 6.46454 3.46447C5.52686 4.40215 5.00008 5.67392 5.00008 7C5.00008 10.6473 4.21715 13.0654 3.37797 14.6039C3.30188 14.7434 3.22549 14.8753 3.1494 15Z" fill="#637381"/>
<path fill-rule="evenodd" clip-rule="evenodd" d="M7.76817 19.135C8.24589 18.8579 8.85782 19.0205 9.13494 19.4982C9.22285 19.6498 9.34902 19.7756 9.50083 19.863C9.65263 19.9504 9.82475 19.9965 9.99994 19.9965C10.1751 19.9965 10.3472 19.9504 10.4991 19.863C10.6509 19.7756 10.777 19.6498 10.8649 19.4982C11.1421 19.0205 11.754 18.8579 12.2317 19.135C12.7094 19.4121 12.8721 20.0241 12.5949 20.5018C12.3312 20.9564 11.9527 21.3338 11.4973 21.5961C11.0419 21.8584 10.5255 21.9965 9.99994 21.9965C9.47437 21.9965 8.95803 21.8584 8.5026 21.5961C8.04718 21.3338 7.66866 20.9564 7.40494 20.5018C7.12782 20.0241 7.29044 19.4121 7.76817 19.135Z" fill="#637381"/>
</svg>
