<svg width="18" height="18" viewBox="0 0 18 18" fill="none" xmlns="http://www.w3.org/2000/svg">
<path fill-rule="evenodd" clip-rule="evenodd" d="M7.87661 1.05206C8.21826 0.85518 8.60566 0.751541 9 0.751541C9.39435 0.751541 9.78177 0.855188 10.1234 1.05208C10.124 1.05238 10.1245 1.05268 10.125 1.05298L15.375 4.05298C15.7167 4.25027 16.0005 4.53394 16.198 4.87554C16.3954 5.21715 16.4996 5.60467 16.5 5.99923V12.0008C16.4996 12.3953 16.3954 12.7829 16.198 13.1245C16.0005 13.4661 15.7167 13.7497 15.375 13.947L15.3721 13.9487L10.125 16.947C10.1246 16.9473 10.1241 16.9475 10.1237 16.9478C9.78194 17.1448 9.39444 17.2485 9 17.2485C8.60558 17.2485 8.21809 17.1448 7.87639 16.9478C7.87592 16.9476 7.87546 16.9473 7.875 16.947L2.6279 13.9487L2.625 13.947C2.2833 13.7497 1.99948 13.4661 1.80202 13.1245C1.60456 12.7829 1.5004 12.3953 1.5 12.0008V5.99923C1.5004 5.60467 1.60456 5.21715 1.80202 4.87554C1.99948 4.53394 2.2833 4.25027 2.625 4.05298L2.62789 4.05131L7.87661 1.05206ZM9 2.25154C8.86835 2.25154 8.73901 2.2862 8.625 2.35202L8.62211 2.35369L3.375 5.35202C3.37461 5.35225 3.37421 5.35248 3.37382 5.35271C3.26044 5.41844 3.16626 5.51274 3.10067 5.62621C3.03491 5.73998 3.00019 5.86904 3 6.00045V11.9996C3.00019 12.131 3.03491 12.26 3.10067 12.3738C3.16626 12.4873 3.26044 12.5816 3.37382 12.6473C3.37421 12.6475 3.37461 12.6478 3.375 12.648L8.625 15.648C8.73901 15.7138 8.86835 15.7485 9 15.7485C9.13165 15.7485 9.26098 15.7138 9.375 15.648L9.3779 15.6463L14.625 12.648C14.6254 12.6478 14.6258 12.6475 14.6262 12.6473C14.7396 12.5816 14.8337 12.4873 14.8993 12.3738C14.9651 12.2599 14.9999 12.1308 15 11.9992V6.00077C14.9999 5.86925 14.9651 5.74008 14.8993 5.62621C14.8337 5.51274 14.7396 5.41844 14.6262 5.35271C14.6258 5.35248 14.6254 5.35225 14.625 5.35202L9.375 2.35203C9.26098 2.2862 9.13165 2.25154 9 2.25154Z" fill="#637381"/>
<path fill-rule="evenodd" clip-rule="evenodd" d="M1.80331 4.84446C2.01072 4.48591 2.46951 4.36339 2.82806 4.5708L9.00002 8.14106L15.172 4.5708C15.5305 4.36339 15.9893 4.48591 16.1967 4.84446C16.4041 5.20301 16.2816 5.6618 15.9231 5.86921L9.37556 9.65671C9.14323 9.7911 8.8568 9.7911 8.62447 9.65671L2.07697 5.86921C1.71843 5.6618 1.59591 5.20301 1.80331 4.84446Z" fill="#637381"/>
<path fill-rule="evenodd" clip-rule="evenodd" d="M9 8.25C9.41421 8.25 9.75 8.58579 9.75 9V16.56C9.75 16.9742 9.41421 17.31 9 17.31C8.58579 17.31 8.25 16.9742 8.25 16.56V9C8.25 8.58579 8.58579 8.25 9 8.25Z" fill="#637381"/>
</svg>
