<svg width="18" height="18" viewBox="0 0 18 18" fill="none" xmlns="http://www.w3.org/2000/svg">
<path fill-rule="evenodd" clip-rule="evenodd" d="M3.9 1.05C4.04164 0.861146 4.26393 0.75 4.5 0.75H13.5C13.7361 0.75 13.9584 0.861146 14.1 1.05L16.35 4.05C16.4474 4.17982 16.5 4.33772 16.5 4.5V15C16.5 15.5967 16.2629 16.169 15.841 16.591C15.419 17.0129 14.8467 17.25 14.25 17.25H3.75C3.15326 17.25 2.58097 17.0129 2.15901 16.591C1.73705 16.169 1.5 15.5967 1.5 15V4.5C1.5 4.33772 1.55263 4.17982 1.65 4.05L3.9 1.05ZM4.875 2.25L3 4.75V15C3 15.1989 3.07902 15.3897 3.21967 15.5303C3.36032 15.671 3.55109 15.75 3.75 15.75H14.25C14.4489 15.75 14.6397 15.671 14.7803 15.5303C14.921 15.3897 15 15.1989 15 15V4.75L13.125 2.25H4.875Z" fill="#637381"/>
<path fill-rule="evenodd" clip-rule="evenodd" d="M1.5 4.5C1.5 4.08579 1.83579 3.75 2.25 3.75H15.75C16.1642 3.75 16.5 4.08579 16.5 4.5C16.5 4.91421 16.1642 5.25 15.75 5.25H2.25C1.83579 5.25 1.5 4.91421 1.5 4.5Z" fill="#637381"/>
<path fill-rule="evenodd" clip-rule="evenodd" d="M6 6.75C6.41421 6.75 6.75 7.08579 6.75 7.5C6.75 8.09674 6.98705 8.66903 7.40901 9.09099C7.83097 9.51295 8.40326 9.75 9 9.75C9.59674 9.75 10.169 9.51295 10.591 9.09099C11.0129 8.66903 11.25 8.09674 11.25 7.5C11.25 7.08579 11.5858 6.75 12 6.75C12.4142 6.75 12.75 7.08579 12.75 7.5C12.75 8.49456 12.3549 9.44839 11.6517 10.1517C10.9484 10.8549 9.99456 11.25 9 11.25C8.00544 11.25 7.05161 10.8549 6.34835 10.1517C5.64509 9.44839 5.25 8.49456 5.25 7.5C5.25 7.08579 5.58579 6.75 6 6.75Z" fill="#637381"/>
</svg>
